<svg width="150" height="150" viewBox="0 0 150 150" fill="none" xmlns="http://www.w3.org/2000/svg">
<path d="M52.1875 27.2787C52.7996 27.573 53.3161 28.0342 53.6776 28.6092C54.0391 29.1842 54.2308 29.8495 54.2308 30.5287C54.2308 34.5191 55.7308 36.8172 57.6106 39.6152L57.75 39.8172C59.3462 42.1922 61.4423 45.3027 61.4423 49.7595C61.4423 54.3075 59.149 58.3172 55.6539 60.697C56.5721 61.4662 57.3846 62.4133 58.0865 63.5479C60.375 67.2499 61.4423 72.9085 61.4423 81.0335C61.4423 89.2643 60.3365 99.1489 58.5337 107.043C57.6394 110.966 56.5289 114.586 55.2067 117.303C54.5481 118.654 53.7452 119.971 52.7548 121.005C51.7644 122.019 50.2404 123.101 48.2212 123.101C46.2019 123.101 44.6779 122.019 43.6923 121.005C42.6885 119.905 41.8614 118.656 41.2404 117.303C39.9135 114.582 38.8029 110.966 37.9087 107.038C36.0334 98.4938 35.0585 89.7764 35 81.0287C35 72.9037 36.0673 67.2499 38.3558 63.5479C39.0086 62.4734 39.83 61.5108 40.7885 60.697C39.0037 59.4853 37.543 57.8548 36.5339 55.9481C35.5248 54.0415 34.9982 51.9167 35 49.7595C35 47.9902 35 44.947 36.8414 41.0191C38.6442 37.1729 42.0721 32.7547 48.3702 27.7114C48.901 27.2868 49.541 27.0209 50.2164 26.9443C50.8918 26.8678 51.5751 26.9837 52.1875 27.2787ZM42.2115 49.7547V49.7595C42.2115 51.3533 42.8447 52.8819 43.9717 54.0089C45.0987 55.1359 46.6273 55.7691 48.2212 55.7691C49.815 55.7691 51.3436 55.1359 52.4706 54.0089C53.5976 52.8819 54.2308 51.3533 54.2308 49.7595C54.2308 47.6489 53.3414 46.1874 51.625 43.6345L51.5673 43.5479C50.4664 41.9133 49.1635 39.9758 48.2404 37.4902C45.6298 40.1441 44.1875 42.346 43.375 44.0768C42.2115 46.5575 42.2115 48.322 42.2115 49.7499V49.7547ZM44.4904 67.3364C43.2981 69.2691 42.2115 73.2306 42.2115 81.0335C42.2115 88.7306 43.2596 98.0768 44.9375 105.437C45.7837 109.139 46.7452 112.144 47.7212 114.144C47.899 114.514 48.0673 114.822 48.2212 115.082C48.375 114.822 48.5433 114.514 48.7212 114.144C49.6971 112.144 50.6587 109.134 51.5048 105.437C53.1875 98.0816 54.2308 88.7354 54.2308 81.0335C54.2308 73.2306 53.1442 69.2691 51.9519 67.3364C51.5923 66.6857 51.0488 66.1556 50.3894 65.8124C49.7067 65.515 48.9652 65.3769 48.2212 65.4085C47.2596 65.4085 46.5721 65.5575 46.0529 65.8124C45.3935 66.1556 44.85 66.6857 44.4904 67.3364Z" fill="#CFE0CE"/>
<path d="M73.4614 89.0238C70.9143 88.5965 68.4368 87.8267 66.096 86.7353C66.2367 84.0085 66.2768 81.2775 66.2162 78.5478C68.3845 80.0045 70.8316 81.0767 73.4614 81.6728V67.7882C73.4614 65.8756 74.2212 64.0413 75.5736 62.6889C76.9261 61.3364 78.7603 60.5767 80.673 60.5767H99.9037C99.9035 56.5415 98.7748 52.5869 96.6451 49.1595C94.5155 45.7322 91.4698 42.9687 87.8521 41.1814C84.2344 39.394 80.1889 38.654 76.1728 39.045C72.1567 39.436 68.3299 40.9424 65.1249 43.394C64.1633 40.7353 62.7932 38.7017 61.8412 37.2882L61.6489 36.9997C65.9684 33.9548 71.0414 32.155 76.3142 31.7968C81.5869 31.4386 86.8567 32.5359 91.5483 34.9687C96.2399 37.4016 100.173 41.0766 102.918 45.5925C105.663 50.1085 107.115 55.2918 107.115 60.5767H123.942C125.855 60.5767 127.689 61.3364 129.042 62.6889C130.394 64.0413 131.154 65.8756 131.154 67.7882V111.057C131.154 112.97 130.394 114.804 129.042 116.157C127.689 117.509 125.855 118.269 123.942 118.269H80.673C78.7603 118.269 76.9261 117.509 75.5736 116.157C74.2212 114.804 73.4614 112.97 73.4614 111.057V89.0238ZM80.673 89.3267V111.057H123.942V67.7882H106.202C104.704 73.5816 101.443 78.7662 96.8691 82.6249C92.2955 86.4836 86.6358 88.8255 80.673 89.3267ZM98.673 67.7882H80.673V82.0815C84.7124 81.6286 88.5427 80.0479 91.7259 77.5202C94.9091 74.9925 97.3166 71.6199 98.673 67.7882Z" fill="#CFE0CE"/>
</svg>
