<svg width="150" height="158" viewBox="0 0 150 158" fill="none" xmlns="http://www.w3.org/2000/svg">
<path d="M30 125.982V110.35H15V125.982H7.5V86.9023H15V102.534H30V86.9023H37.5V125.982H30Z" fill="#CFE0CE"/>
<path d="M52.5 125.982V94.7183H42V86.9023H69.75V94.7183H60V125.982H52.5Z" fill="#CFE0CE"/>
<path d="M75 125.982V86.9023H82.5L93 113.477H93.75L105 86.9023H112.5V125.982H105V101.753H104.25L96 121.293H91.5L83.25 101.753H82.5V125.982H75Z" fill="#CFE0CE"/>
<path d="M142.5 125.982H120V86.9023H127.5V118.166H142.5V125.982Z" fill="#CFE0CE"/>
<path d="M70.5 33.7537L53.25 51.7304L70.5 69.7071L66 79.0863L39.75 51.7304L66 24.3745L70.5 33.7537ZM79.5 69.7071L96.75 51.7304L79.5 33.7537L84 24.3745L110.25 51.7304L84 79.0863L79.5 69.7071Z" fill="#CFE0CE"/>
</svg>
