<svg width="150" height="150" viewBox="0 0 150 150" fill="none" xmlns="http://www.w3.org/2000/svg">
<path d="M53.4563 15.7499C49.4953 15.4827 45.6 16.1952 42.1875 18.1639C37.6359 20.7889 34.6031 25.2749 32.9766 30.4452C31.35 35.6014 30.975 41.5545 31.5703 48.0561C31.6266 48.7124 31.7437 49.4014 31.8234 50.0717C31.2047 50.3342 30.5484 50.578 29.9484 50.8592C24.0234 53.592 19.0594 56.892 15.3984 60.8811C11.7422 64.8749 9.375 69.7405 9.375 74.9999C9.375 80.2545 11.7422 85.1249 15.3984 89.1186C19.0547 93.1077 24.0234 96.4077 29.9484 99.1405C30.5484 99.4217 31.2047 99.6655 31.8234 99.928C31.7437 100.598 31.6266 101.287 31.5656 101.944C30.975 108.445 31.35 114.394 32.9766 119.559C34.6031 124.725 37.6359 129.206 42.1875 131.836C46.7391 134.461 52.1344 134.85 57.4219 133.678C62.7094 132.506 68.0484 129.848 73.3781 126.084C73.9172 125.709 74.4563 125.264 75 124.861C75.5391 125.264 76.0781 125.705 76.6219 126.084C81.9516 129.848 87.2906 132.506 92.5781 133.678C97.8656 134.85 103.261 134.465 107.812 131.836C112.364 129.211 115.397 124.725 117.023 119.555C118.65 114.398 119.025 108.445 118.43 101.944C118.373 101.287 118.256 100.598 118.177 99.928C118.795 99.6655 119.452 99.4217 120.052 99.1405C125.977 96.4077 130.941 93.1077 134.602 89.1186C138.258 85.1249 140.625 80.2592 140.625 74.9999C140.625 69.7452 138.258 64.8749 134.602 60.8811C130.945 56.892 125.977 53.592 120.052 50.8592C119.452 50.578 118.795 50.3342 118.177 50.0717C118.256 49.4014 118.373 48.7124 118.434 48.0561C119.025 41.5545 118.65 35.6061 117.023 30.4405C115.397 25.2749 112.364 20.7936 107.812 18.1639C103.261 15.5389 97.8656 15.1499 92.5781 16.3217C87.2906 17.4936 81.9516 20.1514 76.6219 23.9155C76.0828 24.2905 75.5437 24.7358 75 25.1389C74.4609 24.7358 73.9219 24.2952 73.3781 23.9155C68.0484 20.1514 62.7094 17.4936 57.4219 16.3217C56.1165 16.0292 54.7908 15.8365 53.4563 15.7452V15.7499ZM52.8469 25.0874C53.6437 25.1436 54.4922 25.2749 55.3969 25.4811C58.9406 26.2639 63.1828 28.2514 67.6594 31.3639C63.729 35.105 60.0859 39.1367 56.7609 43.4249C51.3928 44.157 46.0872 45.2914 40.8891 46.8186C40.4297 41.3905 40.8234 36.7217 41.9109 33.2624C43.0312 29.7186 44.7 27.5436 46.875 26.2827C48.5062 25.3452 50.4469 24.9045 52.8422 25.0874H52.8469ZM97.1578 25.0874C99.5484 24.9045 101.494 25.3452 103.125 26.2827C105.3 27.5389 106.969 29.7186 108.089 33.2624C109.177 36.7217 109.57 41.3905 109.111 46.8186C103.913 45.2914 98.6072 44.157 93.2391 43.4249C89.9141 39.1367 86.271 35.105 82.3406 31.3639C86.8172 28.2514 91.0594 26.2639 94.6031 25.4811C95.5078 25.2795 96.3562 25.1436 97.1578 25.0874ZM75 37.3077C76.6453 38.8311 78.2906 40.5233 79.9359 42.2952C78.2914 42.23 76.6458 42.194 75 42.1874C73.3359 42.1874 71.7 42.2389 70.0641 42.2952C71.7047 40.5233 73.3547 38.8311 75 37.3077ZM75 51.5624C79.5234 51.5624 83.9062 51.8295 88.1203 52.2749C90.7053 55.8142 93.1008 59.4881 95.2969 63.2811C97.5563 67.1952 99.5156 71.1233 101.241 74.9999C99.4678 79.0084 97.4838 82.9201 95.2969 86.7186C93.1008 90.5116 90.7053 94.1855 88.1203 97.7248C83.9016 98.1702 79.5234 98.4373 75 98.4373C70.4766 98.4373 66.0938 98.1702 61.8797 97.7248C59.2947 94.1855 56.8992 90.5116 54.7031 86.7186C52.4438 82.8045 50.4844 78.8764 48.7594 74.9999C50.4797 71.1233 52.4438 67.1952 54.7031 63.2811C56.9625 59.367 59.3859 55.7014 61.8797 52.2749C66.2375 51.8057 70.617 51.5679 75 51.5624ZM49.1437 54.3749C48.2766 55.7577 47.4141 57.1499 46.5844 58.5936C45.7681 60.0232 44.9774 61.4672 44.2125 62.9249C43.5094 60.693 42.8918 58.4351 42.3609 56.1561C44.5031 55.4952 46.7906 54.9092 49.1437 54.3749ZM100.856 54.3749C103.209 54.9092 105.497 55.4952 107.639 56.1561C107.142 58.3452 106.5 60.6186 105.788 62.9249C105.023 61.4672 104.232 60.0232 103.416 58.5936C102.588 57.1723 101.734 55.7659 100.856 54.3749ZM33.5344 59.5452C34.7344 64.5374 36.3891 69.717 38.5359 74.9999C36.4834 80.0187 34.8115 85.1848 33.5344 90.4545C28.6078 88.1342 24.7594 85.453 22.3125 82.7811C19.8047 80.0436 18.75 77.5124 18.75 74.9999C18.75 72.4874 19.8047 69.9561 22.3125 67.2186C24.7594 64.5467 28.6078 61.8655 33.5344 59.5452ZM116.466 59.5452C121.392 61.8655 125.241 64.5467 127.688 67.2186C130.195 69.9561 131.25 72.4874 131.25 74.9999C131.25 77.5124 130.195 80.0436 127.688 82.7811C125.241 85.453 121.392 88.1342 116.466 90.4545C115.188 85.1848 113.517 80.0187 111.464 74.9999C113.611 69.717 115.266 64.5374 116.466 59.5452ZM75 60.9374C67.2891 60.9374 60.9375 67.2889 60.9375 74.9999C60.9375 82.7108 67.2891 89.0624 75 89.0624C82.7109 89.0624 89.0625 82.7108 89.0625 74.9999C89.0625 67.2889 82.7109 60.9374 75 60.9374ZM75 70.3124C77.6438 70.3124 79.6875 72.3561 79.6875 74.9999C79.6875 77.6436 77.6438 79.6874 75 79.6874C72.3563 79.6874 70.3125 77.6436 70.3125 74.9999C70.3125 72.3561 72.3563 70.3124 75 70.3124ZM44.2125 87.0749C44.9766 88.5186 45.75 89.9623 46.5797 91.4061C47.4141 92.8499 48.2766 94.242 49.1437 95.6248C46.7906 95.0905 44.5031 94.5045 42.3609 93.8436C42.8578 91.6545 43.5 89.3811 44.2125 87.0749ZM105.788 87.0749C106.5 89.3811 107.147 91.6545 107.639 93.8436C105.497 94.5045 103.209 95.0905 100.856 95.6248C101.723 94.242 102.586 92.8499 103.42 91.4061C104.25 89.9623 105.023 88.5186 105.788 87.0749ZM40.8891 103.181C45.8109 104.634 51.1219 105.797 56.7609 106.575C60.2625 111.075 63.9328 115.097 67.6594 118.636C63.1828 121.748 58.9406 123.736 55.3969 124.519C51.7734 125.325 49.05 124.969 46.875 123.717C44.7 122.461 43.0312 120.281 41.9109 116.737C40.8234 113.278 40.4297 108.609 40.8891 103.181ZM109.111 103.181C109.57 108.609 109.177 113.278 108.089 116.737C106.969 120.281 105.3 122.456 103.125 123.717C100.95 124.969 98.2266 125.325 94.6031 124.519C91.0594 123.736 86.8172 121.748 82.3406 118.636C86.271 114.895 89.9141 110.863 93.2391 106.575C98.6072 105.843 103.913 104.708 109.111 103.181ZM70.0641 107.705C71.7 107.761 73.3359 107.812 75 107.812C76.6641 107.812 78.3 107.761 79.9359 107.705C78.2953 109.476 76.6453 111.169 75 112.692C73.2917 111.093 71.6452 109.429 70.0641 107.705Z" fill="#CFE0CE"/>
</svg>
